# xmcd
#
# Track frame offsets:
#	150
#	15610
#	35804
#	54893
#	77600
#	95166
#	119226
#	142674
#	164273
#	177544
#	199124
#	220758
#	242412
#	265219
#	286454
#	306879
#
# Disc length: 4327 seconds
#
# Revision: 0
# Processed by: cddbd v1.5PL3 Copyright (c) Steve Scherf et al.
# Submitted via: dBpowerAMP V4.0
#
DISCID=e410e510
DTITLE=Eric Clapton - Reptile 
DYEAR=2001
DGENRE=Blues
TTITLE0=Reptile 
TTITLE1=Got You On My Mind
TTITLE2=Travelin' Light 
TTITLE3=Believe In Life 
TTITLE4=Come Back Baby 
TTITLE5=Broken Down 
TTITLE6=Find Myself 
TTITLE7=I Ain't Gonna Stand For It 
TTITLE8=I Want A Little Girl 
TTITLE9=Second Nature 
TTITLE10=Don't Let Me Be Lonely Tonight 
TTITLE11=Modern Girl 
TTITLE12=Superman Inside 
TTITLE13=Son and Sylvia
TTITLE14=Tears In Heaven 
TTITLE15=Change The World
EXTD=
EXTT0=
EXTT1=
EXTT2=
EXTT3=
EXTT4=
EXTT5=
EXTT6=
EXTT7=
EXTT8=
EXTT9=
EXTT10=
EXTT11=
EXTT12=
EXTT13=
EXTT14=
EXTT15=
PLAYORDER=
